<?xml version="1.0" standalone="no"?>
<!DOCTYPE svg PUBLIC "-//W3C//DTD SVG 20010904//EN"
 "http://www.w3.org/TR/2001/REC-SVG-20010904/DTD/svg10.dtd">
<svg version="1.0" xmlns="http://www.w3.org/2000/svg"
 width="1024.000000pt" height="1024.000000pt" viewBox="0 0 1024.000000 1024.000000"
 preserveAspectRatio="xMidYMid meet">

<g transform="translate(0.000000,1024.000000) scale(0.100000,-0.100000)"
fill="#000000" stroke="none">
<path d="M2400 6706 c-193 -41 -372 -167 -473 -333 -20 -33 -51 -102 -69 -154
-31 -90 -32 -100 -32 -249 -1 -142 2 -161 26 -230 14 -41 25 -76 24 -77 -1 -1
-53 7 -116 18 -231 39 -393 94 -627 211 -79 40 -146 69 -149 65 -12 -12 -33
-138 -39 -237 -12 -184 39 -345 150 -467 57 -63 167 -144 227 -166 29 -11 15
-13 -122 -17 l-155 -5 3 -25 c1 -13 29 -79 62 -146 94 -195 199 -291 372 -341
95 -27 232 -31 318 -8 80 21 186 77 256 134 97 79 201 230 249 364 19 52 27
61 64 78 l43 19 -7 -43 c-14 -90 -45 -206 -70 -262 -61 -140 -286 -353 -410
-391 -99 -29 -195 -36 -328 -24 -123 11 -130 11 -150 -8 -32 -29 -124 -77
-182 -95 -66 -21 -201 -39 -284 -37 -92 2 -93 2 -89 -16 9 -44 304 -175 479
-213 162 -34 324 -46 465 -32 553 54 1021 367 1261 845 58 116 104 236 136
361 49 187 60 275 62 514 l2 223 41 34 c64 54 292 331 292 356 0 4 -106 8
-235 8 -133 0 -235 4 -235 9 0 5 -21 37 -46 71 -85 113 -242 218 -380 256 -81
22 -253 27 -334 10z m-320 -180 c0 -2 -8 -10 -17 -17 -16 -13 -17 -12 -4 4 13
16 21 21 21 13z m1317 -182 c-3 -3 -12 -4 -19 -1 -8 3 -5 6 6 6 11 1 17 -2 13
-5z m146 -1 c-7 -2 -19 -2 -25 0 -7 3 -2 5 12 5 14 0 19 -2 13 -5z m67 -3 c0
-5 -7 -7 -15 -4 -8 4 -15 8 -15 10 0 2 7 4 15 4 8 0 15 -4 15 -10z m-804 -59
c39 -23 64 -76 64 -133 0 -116 -122 -180 -205 -107 -69 61 -71 155 -5 221 31
31 45 38 76 38 22 0 53 -9 70 -19z m-1789 -347 c-3 -3 -12 -4 -19 -1 -8 3 -5
6 6 6 11 1 17 -2 13 -5z m2260 -71 c-3 -10 -5 -2 -5 17 0 19 2 27 5 18 2 -10
2 -26 0 -35z m-10 -375 c-3 -8 -6 -5 -6 6 -1 11 2 17 5 13 3 -3 4 -12 1 -19z
m-2110 -444 c-3 -3 -12 -4 -19 -1 -8 3 -5 6 6 6 11 1 17 -2 13 -5z m40 0 c-3
-3 -12 -4 -19 -1 -8 3 -5 6 6 6 11 1 17 -2 13 -5z m40 0 c-3 -3 -12 -4 -19 -1
-8 3 -5 6 6 6 11 1 17 -2 13 -5z m81 -1 c-10 -2 -28 -2 -40 0 -13 2 -5 4 17 4
22 1 32 -1 23 -4z m-340 -780 c-10 -2 -26 -2 -35 0 -10 3 -2 5 17 5 19 0 27
-2 18 -5z m949 -219 c-3 -3 -12 -4 -19 -1 -8 3 -5 6 6 6 11 1 17 -2 13 -5z"/>
<path d="M6880 6115 c-144 -65 -163 -256 -33 -345 37 -25 110 -36 168 -26 82
16 154 122 141 209 -9 62 -55 129 -102 152 -53 25 -130 29 -174 10z"/>
<path d="M5452 5238 l3 -873 158 -3 157 -3 0 364 c0 338 1 367 20 423 40 118
113 174 238 182 88 6 149 -14 188 -61 59 -70 59 -68 64 -502 l5 -400 158 -3
158 -3 -3 458 c-4 445 -4 460 -26 518 -27 74 -79 151 -127 188 -20 16 -66 43
-103 60 -65 31 -71 32 -202 32 -132 0 -137 -1 -201 -32 -36 -18 -86 -50 -111
-73 -25 -22 -49 -40 -52 -40 -3 0 -6 144 -6 320 l0 320 -160 0 -160 0 2 -872z"/>
<path d="M4491 6085 c-98 -22 -159 -44 -240 -87 -334 -177 -514 -562 -446
-953 57 -325 273 -579 575 -676 215 -69 478 -44 669 64 99 55 281 251 281 301
0 7 -62 43 -137 80 l-137 68 -56 -63 c-278 -316 -748 -194 -856 222 -22 84
-22 262 0 348 73 285 359 461 618 381 110 -34 205 -105 262 -198 l27 -42 139
70 c77 39 140 76 140 82 0 6 -14 38 -32 72 -39 74 -151 188 -231 235 -164 96
-396 135 -576 96z"/>
<path d="M7882 5620 c-62 -13 -139 -58 -199 -117 l-53 -51 0 79 0 80 -157 -3
-158 -3 0 -620 0 -620 158 -3 157 -3 0 315 c0 290 2 319 21 382 49 158 139
231 304 243 l80 6 3 149 c1 82 -1 153 -6 158 -13 13 -102 18 -150 8z"/>
<path d="M8666 5599 c-69 -24 -135 -67 -164 -106 l-20 -27 -7 55 c-13 93 -6
89 -170 89 -142 0 -145 0 -150 -22 -3 -13 -4 -401 -3 -863 l3 -840 160 0 160
0 3 307 2 307 40 -43 c71 -77 195 -126 322 -126 234 0 422 146 505 395 24 73
27 94 27 240 1 181 -11 242 -69 361 -92 188 -266 294 -482 294 -72 -1 -114 -6
-157 -21z m233 -304 c59 -30 94 -67 123 -130 20 -44 23 -66 23 -190 0 -136 -1
-142 -30 -200 -51 -102 -148 -151 -280 -143 -121 8 -198 62 -238 166 -23 58
-23 244 -1 323 47 167 248 254 403 174z"/>
<path d="M6795 5598 c-3 -7 -4 -287 -3 -623 l3 -610 160 0 160 0 0 620 0 620
-158 3 c-120 2 -159 0 -162 -10z"/>
</g>
</svg>
